<svg width="24" height="24" viewBox="0 0 24 24" fill="none" xmlns="http://www.w3.org/2000/svg">
<path d="M7.10718 4.97961C6.87617 4.94855 6.64055 4.99122 6.43956 5.10051H6.42242C5.95578 5.35217 5.53542 5.67026 5.17695 6.04294C4.87905 6.35984 4.71745 6.68049 4.67501 6.98913C4.64971 7.17311 4.66684 7.35708 4.72643 7.5328L4.74765 7.54482C5.08309 8.45195 5.52138 9.32454 6.05678 10.1461C6.74645 11.3002 7.59521 12.3676 8.582 13.3218L8.61137 13.3608L8.6579 13.3924L8.68727 13.4239L8.72155 13.451C9.76241 14.3615 10.9253 15.1462 12.1821 15.7856C13.6186 16.505 14.4903 16.8452 15.0133 16.9864V16.9938C15.1668 17.0368 15.3064 17.0562 15.4468 17.0562C15.8926 17.0261 16.3147 16.8596 16.6457 16.5832C17.0489 16.2533 17.3908 15.8649 17.6578 15.4335V15.4259C17.9083 14.9919 17.8234 14.5811 17.4619 14.3033C16.7377 13.7209 15.9548 13.2037 15.1235 12.7586C14.5669 12.4808 14.0014 12.649 13.772 12.9306L13.2831 13.4975C13.0325 13.7791 12.5771 13.7401 12.5771 13.7401L12.564 13.7476C9.16799 12.9494 8.26206 9.78562 8.26206 9.78562C8.26206 9.78562 8.21961 9.35537 8.53384 9.13607L9.14596 8.68249C9.43897 8.46322 9.64302 7.94357 9.32878 7.43067C8.84839 6.66483 8.28744 5.94423 7.65401 5.27924C7.51553 5.12246 7.32125 5.0158 7.10555 4.97811L7.10718 4.97961Z" fill="#D631FF"/>
<path d="M12.8458 3.60449C12.5025 3.60449 12.224 3.86065 12.224 4.17664C12.224 4.49262 12.5025 4.74878 12.8458 4.74878C14.4185 4.74878 15.7252 5.22174 16.7576 6.12736C17.289 6.6233 17.7027 7.21032 17.9743 7.85271C18.2469 8.49752 18.3709 9.18509 18.339 9.87384C18.3245 10.1894 18.5908 10.4563 18.9339 10.4697C19.277 10.4832 19.5671 10.2381 19.5816 9.92236C19.6208 9.07512 19.4681 8.22977 19.1333 7.43786C18.7985 6.64599 18.2889 5.92439 17.6359 5.3169L17.6234 5.3059C16.3424 4.17874 14.7187 3.60449 12.8458 3.60449Z" fill="#D631FF"/>
<path d="M12.8045 5.48608C12.4611 5.48608 12.1826 5.74224 12.1826 6.05823C12.1826 6.37421 12.4611 6.63037 12.8045 6.63037H12.8247C13.9596 6.70395 14.7853 7.05198 15.3642 7.62325C15.9568 8.2116 16.2638 8.94238 16.241 9.8466C16.233 10.1624 16.505 10.4245 16.8483 10.4318C17.1917 10.4391 17.4765 10.189 17.4844 9.87304C17.5143 8.68585 17.0993 7.66212 16.2757 6.84472L16.2746 6.84365C15.4331 6.0128 14.2786 5.57327 12.8878 5.48737L12.867 5.48608H12.8045Z" fill="#D631FF"/>
<path d="M12.7809 7.40193C12.4379 7.38532 12.1452 7.62766 12.1272 7.94321C12.1092 8.25876 12.3726 8.52802 12.7155 8.54464C13.2362 8.56986 13.568 8.71353 13.7767 8.90742C13.9864 9.10215 14.1431 9.41397 14.1717 9.90281C14.1902 10.2184 14.4831 10.4604 14.8261 10.4434C15.169 10.4264 15.432 10.157 15.4136 9.84136C15.3735 9.15476 15.1399 8.54775 14.6605 8.10224C14.18 7.6559 13.524 7.43792 12.7809 7.40193Z" fill="#D631FF"/>
<path fill-rule="evenodd" clip-rule="evenodd" d="M5.99047 0.61045C9.94794 -0.203483 14.052 -0.203483 18.0095 0.61045L18.4312 0.697164C20.7902 1.18233 22.652 2.84707 23.2466 5.00277C24.2511 8.64486 24.2511 12.4602 23.2466 16.1022C22.652 18.2579 20.7901 19.9227 18.4312 20.4078L18.0095 20.4946C15.5236 21.0058 12.9799 21.1959 10.451 21.0649L7.15128 23.7813C6.89791 23.9899 6.54124 24.0551 6.22044 23.9516C5.89963 23.848 5.6655 23.592 5.60936 23.2834L5.06362 20.2839C2.94639 19.6786 1.30486 18.1015 0.753409 16.1022C-0.251136 12.4602 -0.251136 8.64486 0.753409 5.00277C1.34797 2.84707 3.20984 1.18233 5.56882 0.697164L5.99047 0.61045ZM17.6025 2.28554C13.913 1.52674 10.087 1.52674 6.39743 2.28554L5.97578 2.37227C4.30324 2.71624 2.98316 3.89656 2.56161 5.42497C1.63349 8.78999 1.63349 12.315 2.56161 15.68C2.98316 17.2084 4.30323 18.3887 5.97578 18.7327L6.08716 18.7556C6.45764 18.8318 6.74097 19.107 6.80365 19.4514L7.16963 21.4631L9.49825 19.5461C9.68627 19.3912 9.93439 19.3131 10.1861 19.3296C12.6654 19.491 15.1638 19.321 17.6025 18.8194L18.0241 18.7327C19.6968 18.3887 21.0168 17.2084 21.4384 15.68C22.3665 12.315 22.3665 8.78999 21.4384 5.42497C21.0168 3.89656 19.6968 2.71625 18.0241 2.37227L17.6025 2.28554Z" fill="#D631FF"/>
</svg>
