<svg width="24" height="24" viewBox="0 0 24 24" fill="none" xmlns="http://www.w3.org/2000/svg">
<path d="M19.3754 17.1235H17.6317C16.9715 17.1235 16.7674 16.5986 15.5815 15.3966C14.5484 14.3963 14.0914 14.2619 13.8378 14.2619C13.4816 14.2619 13.38 14.3635 13.38 14.8549V16.4297C13.38 16.8539 13.2448 17.1075 12.1268 17.1075C9.87176 16.9563 7.93358 15.7263 6.80844 13.9338L6.79164 13.9058C5.48565 12.2837 4.52296 10.3287 4.04681 8.19046L4.02921 8.09683C4.02921 7.84315 4.13084 7.60548 4.62219 7.60548H6.36591C6.80604 7.60548 6.97569 7.80874 7.14614 8.28249C8.0088 10.7728 9.44923 12.9575 10.0422 12.9575C10.2623 12.9575 10.3639 12.8559 10.3639 12.2973V9.72132C10.2959 8.53536 9.6693 8.43453 9.6693 8.0112C9.6765 7.78474 9.86216 7.60388 10.0894 7.60388C10.0966 7.60388 10.103 7.60388 10.1102 7.60468H10.1094H12.8535C13.2264 7.60468 13.3616 7.80794 13.3616 8.24807V11.7211C13.3616 12.0932 13.5313 12.2293 13.6329 12.2293C13.853 12.2293 14.0402 12.0932 14.4459 11.6875C15.2894 10.6576 16.0104 9.47964 16.5602 8.20966L16.597 8.11363C16.713 7.82315 16.9915 7.62149 17.3172 7.62149C17.3324 7.62149 17.3468 7.62229 17.362 7.62309H17.3596H19.1033C19.6283 7.62309 19.7475 7.89277 19.6283 8.26648C18.9289 9.80694 18.143 11.1305 17.2324 12.3565L17.274 12.2973C17.0883 12.6022 17.0203 12.7374 17.274 13.0775C17.4596 13.3312 18.0702 13.8562 18.4767 14.3307C19.0649 14.9125 19.5579 15.5895 19.93 16.3369L19.95 16.3809C20.1196 16.8707 19.8652 17.1251 19.3738 17.1251L19.3754 17.1235ZM15.6839 0H8.31609C1.59168 0 0 1.59168 0 8.31609V15.6839C0 22.4083 1.59168 24 8.31609 24H15.6839C22.4083 24 24 22.4083 24 15.6839V8.31609C24 1.59168 22.3907 0 15.6839 0Z" fill="#0BA6FE"/>
</svg>
