<svg width="134" height="62" viewBox="0 0 134 62" fill="none" xmlns="http://www.w3.org/2000/svg">
<g filter="url(#filter0_f_7_536)">
<path d="M62.8534 3.95154C60.7507 5.58929 57.9359 7.80709 56.5793 8.88186C49.6778 14.2899 47.0156 16.3541 46.846 16.3712C46.7443 16.3712 45.0316 15.1258 43.0307 13.5734C41.0298 12.0209 39.2832 10.7585 39.1306 10.7755C38.978 10.7926 31.856 16.2688 23.2758 22.9734L7.70926 35.1542L11.6433 35.2054L15.5773 35.2395L17.0695 34.0965C19.6639 32.0834 29.8212 24.1164 30.9743 23.2122C31.5847 22.7175 33.6704 21.0797 35.6035 19.5614L39.1526 16.8147L39.78 17.2754C40.1361 17.5483 40.6787 17.9578 41.0009 18.2137C41.5436 18.6572 42.3405 19.2714 46.1389 22.2398C47.0715 22.9563 48.1737 23.8264 48.5977 24.1676C49.8864 25.1741 54.1765 28.5179 55.9061 29.8656C56.7879 30.548 58.704 32.0493 60.1454 33.1752L62.7568 35.2395H70.7435L75.661 31.384C78.3742 29.2856 81.8334 26.573 83.3595 25.3788C86.5135 22.9051 88.0905 21.6598 88.4636 21.3698C88.701 21.1821 93.7542 17.2754 94.1611 16.9512C94.2968 16.8489 97.1456 18.9814 102.385 23.0757C106.811 26.5389 110.881 29.7121 111.44 30.1556C112 30.5992 113.679 31.9128 115.171 33.0899L117.884 35.2224L121.869 35.2395H125.854L125.26 34.7448C124.938 34.4889 122.411 32.5099 119.664 30.3433C116.917 28.1767 112.254 24.56 109.321 22.2739C106.387 19.9879 103.793 17.9407 103.538 17.753C103.284 17.5654 101.249 15.9788 99.0278 14.2387C96.8064 12.4986 94.8394 10.9632 94.6359 10.8438C94.3137 10.639 94.1442 10.7243 92.8554 11.6968C92.0754 12.2939 91.3971 12.8398 91.3463 12.891C91.2954 12.9421 90.7697 13.3686 90.1593 13.8293C89.5488 14.2899 88.5484 15.0746 87.9209 15.5864C87.1918 16.1835 86.7 16.4565 86.5644 16.3712C86.327 16.2176 80.3242 11.5603 78.3742 10.0078C75.6559 7.84121 66.8892 1.03428 66.7925 1.00016C66.7247 0.983102 64.9612 2.31378 62.8585 3.95154H62.8534ZM69.3361 9.17188C71.5405 10.912 75.2032 13.7781 80.5277 17.9066C81.6299 18.7596 82.5286 19.5443 82.5286 19.6296C82.5286 19.7149 82.1217 20.1244 81.6469 20.4826C81.1721 20.8409 78.3063 23.0758 75.3219 25.413C67.6912 31.401 66.9112 31.9981 66.7417 31.9981C66.6569 31.9981 65.7073 31.2986 64.639 30.4627C63.5707 29.6268 62.3159 28.6373 61.858 28.279C61.4002 27.9208 59.1788 26.1977 56.9066 24.4235C54.6344 22.6493 52.3621 20.875 51.8873 20.4997C51.4125 20.1244 50.9886 19.732 50.9886 19.6296C51.0056 19.442 66.5382 7.26117 66.7586 7.26117C66.8434 7.26117 67.9965 8.11417 69.3361 9.17188Z" fill="#5FC5FF"/>
<path d="M62.3453 16.7294V18.5377L64.1767 18.4866L65.9911 18.4354V15.0234L64.1767 14.9722L62.3453 14.921V16.7294Z" fill="#5FC5FF"/>
<path d="M67.4708 16.6782L67.5217 18.4354L69.353 18.4866L71.1674 18.5378V14.9381H67.42L67.4708 16.6782Z" fill="#5FC5FF"/>
<path d="M62.3835 21.8815L62.4344 23.724L63.8758 23.7752C66.1989 23.8605 66.0971 23.9458 66.0463 21.8815L65.9954 20.1414L64.164 20.0902L62.3327 20.0391L62.3835 21.8815Z" fill="#5FC5FF"/>
<path d="M67.5503 20.1756C67.4825 20.2268 67.4316 21.0286 67.4316 21.9498C67.4316 23.1611 67.4994 23.6217 67.6521 23.6899C67.8047 23.7582 68.6016 23.7582 69.4834 23.7582L71.0774 23.724L71.1282 21.8816L71.1791 20.0562H69.4156C68.449 20.0562 67.6012 20.1073 67.5503 20.1756Z" fill="#5FC5FF"/>
<path d="M41.4378 25.6347L39.6064 25.703L39.6573 27.5284L39.7082 29.3538L41.5395 29.405L43.3539 29.4562V27.4772C43.3539 26.4024 43.337 25.5324 43.32 25.5494C43.303 25.5665 42.4382 25.6177 41.4378 25.6347Z" fill="#5FC5FF"/>
<path d="M34.3658 27.5625V29.4391H38.0963V25.6859H34.3658V27.5625Z" fill="#5FC5FF"/>
<path d="M90.0243 27.5113L90.0752 29.3538H93.8057L93.8566 27.5113L93.9075 25.6859H89.9734L90.0243 27.5113Z" fill="#5FC5FF"/>
<path d="M95.4111 27.5625V29.4562L97.2425 29.405L99.0569 29.3538L99.1078 27.5113L99.1586 25.6859H95.4111V27.5625Z" fill="#5FC5FF"/>
<path d="M34.3658 32.8511V34.7277H38.0963V30.9745H34.3658V32.8511Z" fill="#5FC5FF"/>
<path d="M39.6612 32.7999L39.712 34.6424L41.5434 34.6936L43.3578 34.7447V30.9745H39.6103L39.6612 32.7999Z" fill="#5FC5FF"/>
<path d="M90.0521 31.1963C90.0048 31.8093 89.9935 32.4245 90.0182 33.0388L90.069 34.6424H93.7996V31.0598L91.9682 31.0087C90.5608 30.9745 90.1199 31.0087 90.0521 31.1963Z" fill="#5FC5FF"/>
<path d="M95.4111 32.8511V34.7447L97.2425 34.6936L99.0569 34.6424L99.1078 32.7999L99.1586 30.9745H95.4111V32.8511Z" fill="#5FC5FF"/>
<path d="M41.7254 44.9978C41.5728 45.2366 42.2341 46.3796 42.7089 46.7379C43.455 47.2667 45.0151 47.3179 45.8799 46.8232C46.5412 46.4479 47.1856 45.5096 47.0499 45.1001C46.9312 44.776 45.7103 44.793 45.6086 45.1172C45.3881 45.7143 44.9981 45.9872 44.3368 45.9872C43.7603 45.9872 43.6416 45.9019 43.3363 45.3901C43.0311 44.8783 42.8955 44.793 42.3868 44.8272C42.0646 44.8442 41.7593 44.9295 41.7254 44.9978Z" fill="#5FC5FF"/>
<path d="M4.80962 45.1343C2.06258 45.8338 0.638194 48.6487 1.07908 52.4871C1.36734 54.9438 2.28302 56.4451 3.96177 57.2469C4.657 57.571 4.97919 57.6222 6.30183 57.554C8.08232 57.4687 8.98104 57.0933 9.71019 56.1209C10.2019 55.4897 10.8294 53.8519 10.6937 53.6302C10.6428 53.5449 10.168 53.4937 9.6254 53.4937H8.65885L8.47233 54.2273C8.20102 55.1997 7.59056 55.7456 6.5901 55.8821C5.04701 56.0697 4.28395 55.7115 3.62263 54.432C3.33436 53.8861 3.24957 53.3572 3.1987 51.7706C3.11392 49.2969 3.38523 48.1539 4.25003 47.3862C5.75921 46.0555 8.09927 46.6697 8.54016 48.4951L8.69277 49.1434H10.7107L10.6598 48.6487C10.592 47.9663 9.91367 46.6697 9.32018 46.1238C8.98789 45.8214 8.61018 45.5738 8.20102 45.3902C7.38708 45.049 5.65747 44.9296 4.80962 45.1343Z" fill="#5FC5FF"/>
<path d="M89.4249 45.1343C88.0344 45.4925 87.034 46.3285 86.3048 47.7786C85.5418 49.2628 85.5078 53.1013 86.22 54.739C86.7091 55.844 87.5779 56.7344 88.6669 57.2468C89.413 57.571 89.7691 57.6222 90.99 57.5539C92.601 57.4686 93.3301 57.1786 94.1271 56.3256C94.6528 55.7456 95.1784 54.6879 95.2802 54.0055C95.331 53.596 95.2802 53.579 94.3475 53.5278C93.5336 53.4766 93.364 53.5278 93.2792 53.7837C92.7366 55.4897 92.194 55.9332 90.617 55.9332C89.447 55.9332 88.9213 55.6091 88.3108 54.5173C87.9547 53.886 87.8869 53.4766 87.8191 51.9071C87.7343 49.7063 87.9547 48.4268 88.5991 47.6762C88.9959 47.2088 89.5313 46.882 90.1266 46.7438C90.7219 46.6056 91.3455 46.6633 91.9057 46.9085C92.5331 47.1644 92.957 47.7103 93.1775 48.5633C93.3131 49.1434 93.3301 49.1434 94.3306 49.1434H95.331L95.2632 48.6316C95.1276 47.3862 94.0084 45.8849 92.8553 45.4072C92.0583 45.066 90.2558 44.9296 89.4249 45.1343Z" fill="#5FC5FF"/>
<path d="M52.6293 45.2537C52.5784 45.339 52.4936 46.2773 52.4428 47.3521C52.1545 52.163 51.8832 53.6643 51.0014 55.0632C50.5605 55.7456 50.391 55.8821 49.9671 55.8821H49.4583V57.5369C49.4527 58.3058 49.4866 59.0745 49.5601 59.84L49.6788 60.4882H51.4762L51.5271 58.987L51.578 57.5027H55.6476C59.5986 57.5027 59.7173 57.5198 59.7343 57.8439C59.7512 58.0316 59.7682 58.6969 59.7852 59.3282L59.8021 60.4882H61.6674V58.9699C61.6674 58.151 61.7183 57.1104 61.7691 56.6839L61.8878 55.8991L61.0908 55.8479L60.2939 55.7968L60.3108 50.747C60.3108 47.9662 60.2769 45.5778 60.2091 45.4243C60.1243 45.1684 59.6834 45.1343 56.4107 45.1343C54.3589 45.1343 52.6632 45.1855 52.6293 45.2537ZM58.1064 51.3612V55.8821H55.6019C54.2114 55.8821 53.0414 55.8479 52.9905 55.7968C52.9396 55.7456 53.0922 55.3361 53.2957 54.8755C53.8383 53.7325 54.1775 52.18 54.2962 50.2523C54.347 49.3651 54.4318 48.2221 54.4827 47.7274L54.5675 46.8403H58.1115L58.1064 51.3612Z" fill="#5FC5FF"/>
<path d="M23.9022 48.4779C23.6611 48.5673 23.4415 48.7068 23.2578 48.8874C23.0882 49.1603 22.8847 49.0921 22.783 48.7168C22.7152 48.4268 22.5456 48.3756 21.8334 48.3756H20.9686V60.9999H22.8339V58.9527C22.8339 57.8268 22.9017 56.9056 22.9695 56.9056C23.2458 56.9924 23.5128 57.1067 23.7665 57.2468C24.6652 57.7074 26.0557 57.7074 26.8866 57.2297C28.1245 56.5302 28.7519 55.1313 28.7688 52.9818C28.7688 51.3099 28.5653 50.4569 27.9718 49.5527C27.1918 48.3585 25.2926 47.8638 23.9022 48.4779ZM26.0557 50.3886C27.2427 51.5999 27.0392 54.9778 25.7166 55.7625C25.282 56.0158 24.7697 56.0984 24.2782 55.9944C23.7867 55.8905 23.3508 55.6074 23.0543 55.1996C22.9187 55.029 22.8508 54.2442 22.8339 52.9306C22.8339 50.9175 22.8339 50.9004 23.3256 50.4057C23.7495 49.9792 23.953 49.911 24.6991 49.911C25.4452 49.911 25.6487 49.9963 26.0557 50.3886Z" fill="#5FC5FF"/>
<path d="M32.5695 48.6144C31.0773 49.3139 30.2633 50.7469 30.2294 52.7259C30.2125 54.3124 30.5347 55.3872 31.3486 56.2914C32.2304 57.315 33.1291 57.6391 34.7739 57.5538C35.8422 57.5027 36.1474 57.4174 36.7579 56.9909C38.3349 55.8649 39.0132 53.4253 38.3518 51.1734C37.6396 48.6827 34.9435 47.5055 32.5695 48.6144ZM35.2826 49.9792C36.9614 50.6787 37.0461 54.9266 35.4013 55.7796C33.6378 56.7008 32.2473 55.4384 32.2473 52.8965C32.2473 51.4123 32.6543 50.474 33.5191 50.0475C34.2364 49.6721 34.5365 49.6721 35.2826 49.9792Z" fill="#5FC5FF"/>
<path d="M65.5161 48.444C65.0196 48.624 64.5642 48.9025 64.1768 49.263C63.7894 49.6234 63.4779 50.0585 63.2608 50.5423C62.8538 51.3612 62.786 51.7195 62.786 52.8796C62.8029 54.6026 63.2608 55.7968 64.2612 56.6498C65.16 57.4346 65.8552 57.6393 67.3474 57.554C68.3987 57.5028 68.704 57.4175 69.3144 56.991C69.8156 56.5919 70.2358 56.0996 70.5523 55.5409C71.044 54.6538 71.078 54.5002 71.078 52.8966C71.061 50.9177 70.8066 50.2182 69.6536 49.1775C68.6192 48.2392 66.9574 47.9322 65.5161 48.444ZM67.8561 49.9794C68.2629 50.1722 68.5877 50.505 68.7718 50.9177C69.4501 52.2313 69.1449 54.9267 68.2292 55.6774C68.0766 55.8139 67.6526 55.9503 67.2796 56.0015C65.6687 56.2233 64.8208 55.1656 64.8039 52.9819C64.8039 51.3953 65.1939 50.4741 66.0756 50.0476C66.7929 49.6723 67.0931 49.6723 67.8561 49.9794Z" fill="#5FC5FF"/>
<path d="M11.6424 49.1433V49.911H14.5251V53.6471C14.5251 56.4791 14.576 57.4003 14.7456 57.4515C15.0649 57.5043 15.3885 57.5272 15.7121 57.5197L16.4752 57.5027L16.56 53.7495L16.6447 49.9963L18.0861 49.911L19.5274 49.8257L19.5783 49.0921L19.6292 48.3756H11.6424V49.1433Z" fill="#5FC5FF"/>
<path d="M40.4703 52.8623C40.4703 55.336 40.5042 57.4003 40.5381 57.4344C40.572 57.4685 41.0468 57.4685 41.5725 57.4515L42.5221 57.3832L44.2856 54.3807L46.0661 51.3611V57.4174H48.101V48.3585L47.0666 48.4097L46.0322 48.4609L44.4382 51.1905C43.5734 52.6918 42.7765 54.0395 42.6917 54.176C42.573 54.3466 42.5221 53.4253 42.5221 51.3952L42.5051 48.3756H40.4703V52.8623Z" fill="#5FC5FF"/>
<path d="M73.1974 52.8965V57.4174H75.0627V54.5001C75.0627 52.8624 75.1305 51.6341 75.2153 51.6852C75.3001 51.7364 75.8766 53.05 76.521 54.6025L77.674 57.4174H79.0645L80.2345 54.6025C80.862 53.05 81.4554 51.7876 81.5233 51.7876C81.5911 51.7876 81.6759 53.05 81.6759 54.6025V57.4174H83.5412V48.3756H81.0654L79.7937 51.5488C79.0815 53.2889 78.4541 54.7219 78.3862 54.739C78.3184 54.756 77.674 53.3401 76.9618 51.5658L75.6731 48.3756H73.1974V52.8965Z" fill="#5FC5FF"/>
<path d="M96.2987 49.0921L96.3496 49.8257L97.757 49.8769L99.1475 49.9281V57.4174H101.182L101.216 53.6983L101.267 49.9963L102.708 49.911L104.15 49.8257L104.201 49.0921L104.252 48.3756H96.2478L96.2987 49.0921Z" fill="#5FC5FF"/>
<path d="M105.585 52.8965V57.4174H107.603L108.349 56.172C108.756 55.5067 109.553 54.176 110.095 53.2377L111.096 51.5317L111.147 54.466L111.181 57.4174H113.215V48.3756H111.22L109.473 51.3952L107.709 54.4319L107.659 51.3952L107.625 48.3756H105.59L105.585 52.8965Z" fill="#5FC5FF"/>
<path d="M116.539 48.9045C116.465 49.5728 116.431 50.2451 116.437 50.9175C116.437 52.5894 116.2 54.466 115.912 55.0972C115.744 55.3915 115.471 55.6109 115.149 55.7114C114.606 55.8991 114.572 55.9502 114.572 56.6667V57.4174H115.352C115.817 57.4332 116.276 57.3146 116.676 57.0757C117.076 56.8368 117.399 56.4877 117.607 56.0696C117.98 55.3531 118.303 53.4424 118.303 51.9923C118.302 51.4731 118.336 50.9544 118.404 50.4399L118.523 49.911H121.016V57.4174H123.051V48.3756H116.658L116.539 48.9045Z" fill="#5FC5FF"/>
<path d="M125.425 48.4098C125.425 48.4439 125.408 50.4741 125.374 52.9478L125.34 57.4175H127.968C130.156 57.4175 130.715 57.3492 131.292 57.0933C133.479 56.0868 133.598 52.8625 131.461 51.7536C130.953 51.4806 130.325 51.3612 129.07 51.293L127.375 51.1906L127.324 49.7746L127.273 48.3757H126.357C126.046 48.3657 125.734 48.3771 125.425 48.4098ZM130.63 53.3913C131.173 54.0396 131.156 54.8585 130.563 55.4385C130.139 55.865 130.037 55.8991 128.748 55.848L127.375 55.7968L127.324 54.5343C127.256 52.726 127.222 52.7601 128.85 52.8454C130.088 52.9136 130.274 52.9819 130.63 53.3913Z" fill="#5FC5FF"/>
</g>
<defs>
<filter id="filter0_f_7_536" x="0.8" y="0.8" width="132.4" height="60.3999" filterUnits="userSpaceOnUse" color-interpolation-filters="sRGB">
<feFlood flood-opacity="0" result="BackgroundImageFix"/>
<feBlend mode="normal" in="SourceGraphic" in2="BackgroundImageFix" result="shape"/>
<feGaussianBlur stdDeviation="0.1" result="effect1_foregroundBlur_7_536"/>
</filter>
</defs>
</svg>
